<svg width="80" height="86" viewBox="0 0 80 86" fill="none" xmlns="http://www.w3.org/2000/svg">
<g filter="url(#filter0_d_1271_1447)">
<path d="M64 36C64 55.2548 40 66 40 66C40 66 16 55.2548 16 36C16 22.7452 26.7452 12 40 12C53.2548 12 64 22.7452 64 36Z" fill="white"/>
</g>
<circle cx="40" cy="36" r="22" fill="#0064D8"/>
<path d="M40 30.6875C39.3201 30.6875 38.6555 30.8891 38.0902 31.2668C37.5249 31.6445 37.0843 32.1814 36.8242 32.8095C36.564 33.4376 36.4959 34.1288 36.6286 34.7956C36.7612 35.4624 37.0886 36.0749 37.5693 36.5557C38.0501 37.0364 38.6626 37.3638 39.3294 37.4964C39.9962 37.6291 40.6874 37.561 41.3155 37.3008C41.9436 37.0407 42.4805 36.6001 42.8582 36.0348C43.2359 35.4695 43.4375 34.8049 43.4375 34.125C43.4365 33.2136 43.074 32.3399 42.4295 31.6955C41.7851 31.051 40.9114 30.6885 40 30.6875ZM40 35.6875C39.691 35.6875 39.3889 35.5959 39.1319 35.4242C38.875 35.2525 38.6747 35.0085 38.5564 34.7229C38.4382 34.4374 38.4072 34.1233 38.4675 33.8202C38.5278 33.5171 38.6766 33.2387 38.8951 33.0201C39.1137 32.8016 39.3921 32.6528 39.6952 32.5925C39.9983 32.5322 40.3124 32.5632 40.5979 32.6814C40.8835 32.7997 41.1275 33 41.2992 33.2569C41.4709 33.5139 41.5625 33.816 41.5625 34.125C41.5625 34.5394 41.3979 34.9368 41.1049 35.2299C40.8118 35.5229 40.4144 35.6875 40 35.6875ZM40 26.9375C38.0944 26.9396 36.2674 27.6975 34.92 29.045C33.5725 30.3924 32.8146 32.2194 32.8125 34.125C32.8125 40.1687 39.1906 44.7031 39.4625 44.893C39.6201 45.0032 39.8077 45.0624 40 45.0624C40.1923 45.0624 40.3799 45.0032 40.5375 44.893C41.7455 44.0027 42.8508 42.9808 43.8328 41.8461C46.0273 39.3258 47.1875 36.6539 47.1875 34.125C47.1854 32.2194 46.4275 30.3924 45.08 29.045C43.7326 27.6975 41.9056 26.9396 40 26.9375ZM42.4453 40.5867C41.7004 41.4424 40.8822 42.2313 40 42.9445C39.1178 42.2313 38.2996 41.4424 37.5547 40.5867C36.25 39.0758 34.6875 36.7273 34.6875 34.125C34.6875 32.716 35.2472 31.3648 36.2435 30.3685C37.2398 29.3722 38.591 28.8125 40 28.8125C41.409 28.8125 42.7602 29.3722 43.7565 30.3685C44.7528 31.3648 45.3125 32.716 45.3125 34.125C45.3125 36.7273 43.75 39.0758 42.4453 40.5867Z" fill="white"/>
<defs>
<filter id="filter0_d_1271_1447" x="0" y="0" width="80" height="86" filterUnits="userSpaceOnUse" color-interpolation-filters="sRGB">
<feFlood flood-opacity="0" result="BackgroundImageFix"/>
<feColorMatrix in="SourceAlpha" type="matrix" values="0 0 0 0 0 0 0 0 0 0 0 0 0 0 0 0 0 0 127 0" result="hardAlpha"/>
<feOffset dy="4"/>
<feGaussianBlur stdDeviation="8"/>
<feComposite in2="hardAlpha" operator="out"/>
<feColorMatrix type="matrix" values="0 0 0 0 0 0 0 0 0 0 0 0 0 0 0 0 0 0 0.12 0"/>
<feBlend mode="normal" in2="BackgroundImageFix" result="effect1_dropShadow_1271_1447"/>
<feBlend mode="normal" in="SourceGraphic" in2="effect1_dropShadow_1271_1447" result="shape"/>
</filter>
</defs>
</svg>
