<svg width="40" height="40" viewBox="0 0 40 40" fill="none" xmlns="http://www.w3.org/2000/svg">
<path d="M18.3333 31.6667V35M18.3333 20V26.6667M26.6667 20V26.6667H23.3333M35 20H13.3333M8.33333 20H5M5 8.33333L20 5L35 8.33333" stroke="#0064D8" stroke-width="2" stroke-linecap="round" stroke-linejoin="round"/>
<path d="M35 14.3334V34C35 34.2653 34.8946 34.5196 34.7071 34.7071C34.5196 34.8947 34.2652 35 34 35H6C5.73478 35 5.48043 34.8947 5.29289 34.7071C5.10536 34.5196 5 34.2653 5 34V14.3334C5 14.0682 5.10536 13.8138 5.29289 13.6263C5.48043 13.4387 5.73478 13.3334 6 13.3334H34C34.2652 13.3334 34.5196 13.4387 34.7071 13.6263C34.8946 13.8138 35 14.0682 35 14.3334Z" stroke="#0064D8" stroke-width="2" stroke-linecap="round" stroke-linejoin="round"/>
</svg>
