<svg width="40" height="40" viewBox="0 0 40 40" fill="none" xmlns="http://www.w3.org/2000/svg">
<path d="M4.49219 11.9751L19.4922 18.6418L20.5089 16.3584L5.50885 9.69177L4.49219 11.9751ZM21.2505 35.8334V17.5001H18.7505V35.8334H21.2505ZM20.5089 18.6418L35.5089 11.9751L34.4922 9.69177L19.4922 16.3584L20.5089 18.6418Z" fill="#0064D8"/>
<path d="M5 28.5167V11.4833C5.00005 11.29 5.05611 11.1009 5.16142 10.9388C5.26672 10.7767 5.41674 10.6486 5.59333 10.57L19.5933 4.34668C19.7213 4.2897 19.8599 4.26025 20 4.26025C20.1401 4.26025 20.2787 4.2897 20.4067 4.34668L34.4067 10.57C34.5833 10.6486 34.7333 10.7767 34.8386 10.9388C34.9439 11.1009 35 11.29 35 11.4833V28.5167C35 28.71 34.9439 28.8991 34.8386 29.0612C34.7333 29.2233 34.5833 29.3514 34.4067 29.43L20.4067 35.6533C20.2787 35.7103 20.1401 35.7398 20 35.7398C19.8599 35.7398 19.7213 35.7103 19.5933 35.6533L5.59333 29.43C5.41674 29.3514 5.26672 29.2233 5.16142 29.0612C5.05611 28.8991 5.00005 28.71 5 28.5167Z" stroke="#0064D8" stroke-width="2" stroke-linecap="round" stroke-linejoin="round"/>
<path d="M12.5 7.5L26.9067 13.9033C27.0833 13.9819 27.2333 14.11 27.3386 14.2721C27.4439 14.4342 27.5 14.6234 27.5 14.8167V20.8333" stroke="#0064D8" stroke-width="2" stroke-linecap="round" stroke-linejoin="round"/>
</svg>
