<svg width="40" height="40" viewBox="0 0 40 40" fill="none" xmlns="http://www.w3.org/2000/svg">
<path d="M27.454 33.3335H6.83398C6.56877 33.3335 6.31441 33.2282 6.12688 33.0406C5.93934 32.8531 5.83398 32.5987 5.83398 32.3335V16.0002C5.83398 15.735 5.93934 15.4806 6.12688 15.2931C6.31441 15.1055 6.56877 15.0002 6.83398 15.0002H11.4473C12.0229 15.0002 12.5888 14.8511 13.0897 14.5675C13.5906 14.2839 14.0095 13.8754 14.3057 13.3818L18.8223 5.85351C19.163 5.28493 19.6996 4.8604 20.3313 4.65976C20.963 4.45912 21.6463 4.4962 22.2526 4.76403C22.8589 5.03185 23.3464 5.51197 23.6235 6.11407C23.9006 6.71618 23.9482 7.39878 23.7573 8.03351L22.054 13.7135C22.0093 13.8627 22.0002 14.0202 22.0272 14.1736C22.0542 14.327 22.1166 14.4719 22.2095 14.5968C22.3024 14.7218 22.4232 14.8233 22.5623 14.8934C22.7014 14.9634 22.8549 15 23.0107 15.0002H30.6357C31.1482 15.0001 31.6539 15.1182 32.1134 15.3453C32.5729 15.5724 32.9738 15.9025 33.285 16.3098C33.5962 16.7171 33.8093 17.1906 33.9077 17.6937C34.0061 18.1967 33.9871 18.7157 33.8523 19.2102L30.669 30.8768C30.4768 31.582 30.0581 32.2044 29.4775 32.6483C28.8969 33.0922 28.1848 33.3329 27.454 33.3335Z" stroke="#0064D8" stroke-width="2" stroke-linecap="round"/>
<path d="M11.666 33.3333V15" stroke="#0064D8" stroke-width="2" stroke-linecap="round" stroke-linejoin="round"/>
</svg>
