<svg width="40" height="40" viewBox="0 0 40 40" fill="none" xmlns="http://www.w3.org/2000/svg">
<path d="M19.3456 3.9033C19.5275 3.74524 19.7604 3.6582 20.0014 3.6582C20.2424 3.6582 20.4753 3.74524 20.6573 3.9033L23.9039 6.7233C24.005 6.81122 24.1228 6.87791 24.2502 6.91943C24.3776 6.96094 24.5121 6.97643 24.6456 6.96496L28.9322 6.59163C29.1722 6.57102 29.4116 6.63773 29.6064 6.7795C29.8011 6.92127 29.9381 7.12857 29.9923 7.3633L30.9623 11.5533C30.9922 11.6842 31.0482 11.8078 31.127 11.9166C31.2057 12.0254 31.3056 12.1173 31.4206 12.1866L35.1073 14.4033C35.3135 14.5275 35.4681 14.722 35.5425 14.951C35.6169 15.18 35.6062 15.4282 35.5123 15.65L33.8323 19.61C33.78 19.7333 33.7531 19.866 33.7531 20C33.7531 20.134 33.78 20.2666 33.8323 20.39L35.5123 24.35C35.6066 24.5719 35.6176 24.8205 35.5432 25.0499C35.4688 25.2793 35.3139 25.474 35.1073 25.5983L31.4206 27.815C31.3057 27.8842 31.206 27.9757 31.1273 28.0842C31.0485 28.1928 30.9924 28.316 30.9623 28.4466L29.9923 32.6366C29.9381 32.8714 29.8011 33.0787 29.6064 33.2204C29.4116 33.3622 29.1722 33.4289 28.9322 33.4083L24.6456 33.035C24.5122 33.0233 24.3778 33.0385 24.2504 33.0797C24.123 33.1209 24.0052 33.1873 23.9039 33.275L20.6556 36.0966C20.4736 36.2547 20.2408 36.3417 19.9998 36.3417C19.7587 36.3417 19.5259 36.2547 19.3439 36.0966L16.0973 33.275C15.996 33.1873 15.8782 33.1209 15.7508 33.0797C15.6234 33.0385 15.489 33.0233 15.3556 33.035L11.0689 33.4083C10.8289 33.4289 10.5895 33.3622 10.3948 33.2204C10.2001 33.0787 10.063 32.8714 10.0089 32.6366L9.03892 28.4466C9.00897 28.3157 8.95295 28.1921 8.87421 28.0833C8.79546 27.9745 8.6956 27.8827 8.58058 27.8133L4.89392 25.5966C4.68762 25.4724 4.53307 25.2779 4.45867 25.0489C4.38427 24.8199 4.39501 24.5717 4.48892 24.35L6.16892 20.39C6.22117 20.2666 6.2481 20.134 6.2481 20C6.2481 19.866 6.22117 19.7333 6.16892 19.61L4.48892 15.65C4.39455 15.428 4.38356 15.1795 4.45799 14.9501C4.53241 14.7207 4.68723 14.5259 4.89392 14.4016L8.58058 12.185C8.69542 12.1158 8.79518 12.0242 8.87392 11.9157C8.95265 11.8072 9.00877 11.6839 9.03892 11.5533L10.0089 7.3633C10.063 7.12857 10.2001 6.92127 10.3948 6.7795C10.5895 6.63773 10.8289 6.57102 11.0689 6.59163L15.3556 6.96496C15.4891 6.97643 15.6235 6.96094 15.751 6.91943C15.8784 6.87791 15.9961 6.81122 16.0973 6.7233L19.3456 3.9033Z" stroke="#0064D8" stroke-width="2"/>
<path d="M15 21.25L18.3333 24.5833L26.6667 16.25" stroke="#0064D8" stroke-width="2" stroke-linecap="round" stroke-linejoin="round"/>
</svg>
