<svg xmlns="http://www.w3.org/2000/svg" width="24" height="24" fill="none"><g clip-path="url(#a)"><mask id="b" width="24" height="25" x="0" y="0" maskUnits="userSpaceOnUse" style="mask-type:luminance"><path fill="#fff" d="M0 0h24v24H0V0Z"/></mask><g mask="url(#b)"><path stroke="#8285A5" stroke-linecap="round" stroke-linejoin="round" stroke-width="2" d="M22 12h1M12 2V1m0 22v-1m8-2-1-1m1-15-1 1M4 20l1-1M4 4l1 1m-4 7h1m8-2.4 1.5-3.3a.5.5 0 0 1 1 0L14 9.6l3.5.6c.5 0 .7.6.3 1l-2.5 2.5.6 3.6c0 .5-.4.9-.8.6L12 16.2 8.9 18c-.4.3-.9-.1-.8-.6l.6-3.6-2.5-2.6c-.4-.3-.2-.9.3-1l3.5-.5Z"/></g></g><defs><clipPath id="a"><path fill="#fff" d="M0 0h24v24H0z"/></clipPath></defs></svg>