<svg width="24" height="24" viewBox="0 0 24 24" fill="none" xmlns="http://www.w3.org/2000/svg">
<path d="M15.796 18.7041C16.0073 18.9154 16.1261 19.2021 16.1261 19.501C16.1261 19.7999 16.0073 20.0865 15.796 20.2978C15.5846 20.5092 15.298 20.6279 14.9991 20.6279C14.7002 20.6279 14.4136 20.5092 14.2022 20.2978L6.70222 12.7978C6.59734 12.6933 6.51413 12.5691 6.45735 12.4324C6.40057 12.2956 6.37134 12.149 6.37134 12.001C6.37134 11.8529 6.40057 11.7063 6.45735 11.5696C6.51413 11.4328 6.59734 11.3086 6.70222 11.2041L14.2022 3.7041C14.4136 3.49276 14.7002 3.37402 14.9991 3.37402C15.298 3.37402 15.5846 3.49276 15.796 3.7041C16.0073 3.91544 16.1261 4.20209 16.1261 4.50097C16.1261 4.79986 16.0073 5.08651 15.796 5.29785L9.09379 12L15.796 18.7041Z" fill="#0064D8"/>
</svg>
