<svg width="24" height="24" viewBox="0 0 24 24" fill="none" xmlns="http://www.w3.org/2000/svg">
<path d="M19.5 19C19.8978 19 20.2794 19.158 20.5607 19.4393C20.842 19.7206 21 20.1022 21 20.5C21 20.8978 20.842 21.2794 20.5607 21.5607C20.2794 21.842 19.8978 22 19.5 22C19.1022 22 18.7206 21.842 18.4393 21.5607C18.158 21.2794 18 20.8978 18 20.5C18 20.1022 18.158 19.7206 18.4393 19.4393C18.7206 19.158 19.1022 19 19.5 19ZM19.5 19H5.23C3.446 19 2.5 18.219 2.5 17C2.5 15.781 3.446 15 5.23 15H20M5 4H22L20 15M5 4L7 15H20M5 4C4.833 3.333 4 2 2 2M9.5 22C9.89782 22 10.2794 21.842 10.5607 21.5607C10.842 21.2794 11 20.8978 11 20.5C11 20.1022 10.842 19.7206 10.5607 19.4393C10.2794 19.158 9.89782 19 9.5 19C9.10218 19 8.72064 19.158 8.43934 19.4393C8.15804 19.7206 8 20.1022 8 20.5C8 20.8978 8.15804 21.2794 8.43934 21.5607C8.72064 21.842 9.10218 22 9.5 22Z" stroke="#212328" stroke-width="2" stroke-linecap="round" stroke-linejoin="round"/>
</svg>
