<svg width="25" height="24" viewBox="0 0 25 24" fill="none" xmlns="http://www.w3.org/2000/svg">
<path d="M17.1875 2.625C15.3041 2.625 13.6325 3.36844 12.5 4.64625C11.3675 3.36844 9.69594 2.625 7.8125 2.625C6.17208 2.62698 4.59942 3.27952 3.43947 4.43947C2.27952 5.59942 1.62698 7.17208 1.625 8.8125C1.625 15.5944 11.5447 21.0131 11.9666 21.2409C12.1305 21.3292 12.3138 21.3754 12.5 21.3754C12.6862 21.3754 12.8695 21.3292 13.0334 21.2409C13.4553 21.0131 23.375 15.5944 23.375 8.8125C23.373 7.17208 22.7205 5.59942 21.5605 4.43947C20.4006 3.27952 18.8279 2.62698 17.1875 2.625ZM16.6728 15.9713C15.3671 17.0792 13.9714 18.0764 12.5 18.9525C11.0286 18.0764 9.63287 17.0792 8.32719 15.9713C6.29562 14.2284 3.875 11.5706 3.875 8.8125C3.875 7.76821 4.28984 6.76669 5.02827 6.02827C5.76669 5.28984 6.76821 4.875 7.8125 4.875C9.48125 4.875 10.8781 5.75625 11.4584 7.17562C11.5429 7.38254 11.6871 7.55961 11.8726 7.68425C12.0581 7.80889 12.2765 7.87545 12.5 7.87545C12.7235 7.87545 12.9419 7.80889 13.1274 7.68425C13.3129 7.55961 13.4571 7.38254 13.5416 7.17562C14.1219 5.75625 15.5188 4.875 17.1875 4.875C18.2318 4.875 19.2333 5.28984 19.9717 6.02827C20.7102 6.76669 21.125 7.76821 21.125 8.8125C21.125 11.5706 18.7044 14.2284 16.6728 15.9713Z" fill="#212328"/>
</svg>
