<svg xmlns="http://www.w3.org/2000/svg" width="44" height="44" fill="none"><rect width="44" height="44" fill="#F2F7FD" rx="10"/><path fill="#0064D8" d="M22 15.63a4.12 4.12 0 1 0 0 8.24 4.12 4.12 0 0 0 0-8.25Zm0 6a1.88 1.88 0 1 1 0-3.76 1.88 1.88 0 0 1 0 3.75Zm0-10.5a8.63 8.63 0 0 0-8.63 8.62c0 7.25 7.66 12.7 7.99 12.92a1.12 1.12 0 0 0 1.29 0 24.29 24.29 0 0 0 3.95-3.65c2.63-3.03 4.02-6.24 4.02-9.27A8.63 8.63 0 0 0 22 11.12Zm2.93 16.37A23.38 23.38 0 0 1 22 30.33a23.38 23.38 0 0 1-2.93-2.83c-1.57-1.8-3.45-4.63-3.45-7.75a6.37 6.37 0 1 1 12.76 0c0 3.12-1.88 5.94-3.45 7.75Z"/></svg>